<svg id="Layer_1" data-name="Layer 1" xmlns="http://www.w3.org/2000/svg" viewBox="0 0 1491 399.82"><defs><style>.cls-1{fill:#ff92f2;stroke:#ff92f2;stroke-miterlimit:10;}</style></defs><path class="cls-1" d="M1394.21,160.83c-59.85,21.41-126.78,16.75-190-49.79-176.42-185.75-302-87.31-388.49-60.32S520.55,174.53,337.34,68.18C166.11-31.21-65.72,107.85-95.28,126.47V242.39c14.5-.32,56,.66,56,.39v1.42c15.07-.16,42.6-.31,49.38,0v-1.42c0-.43,60.92-.42,60.92,0v1.31h.14v-1.31c0-.44,29-.38,47-.25,8.86-.07,21.37-.09,31.55,0,18-.08,43.43,0,43.43.29v1.38c15.79-.2,54.29-.12,54.29.21v.12c8.48-.07,22.27-.41,23.83-.41,1.15,0,8.28-.15,15.36-.2v-1.1c0-.37,60.91-.5,60.91,0v1.36c11.32-.12,31.47-.12,43.26,0,4.2-.62,26.31-.15,42.52.16,4.37-.21,25.57-.28,41.57-.22v-2.88c0-.51,60.92-.34,60.92,0v1.06c15.77-.22,54.27,1.1,54.3.53l-.06,1.13c8,0,17.51.17,18.79.17,1.07,0,8.28.08,15.37.16v-1.46c0-.46,60.92-.51,60.92,0v1.27h10.29v-1.28c0-.43,29.74-.38,47.66-.26,11.76-.1,30.77-.07,41.83,0,7.09-.07,17-.1,26.24-.1,8.87-.15,26.72,0,39.83.14a23.64,23.64,0,0,1,3.57,0h3.51c9.3-.29,59.44-.32,59.44.1v1.21l10.33.06V242.7c0-.42,60.92-.43,60.92,0V244c7.48.09,14.86.21,20.54.29.8-.78,27.61-.34,45.39-.07,6.71-.24,37.71-.29,52.16-.12,10.4-.1,27.25-.14,38.83-.06,15.33-.08,35.92,0,41.68.16v-3.06c0-.72,60.92-.12,60.92,0v1.42c12.42-.19,44.64-.21,53.62,0,11.59-.29,58.36-.21,58.34.14V244c9.48-.08,22.9-.09,33.33,0C1392,216.42,1393.77,188.49,1394.21,160.83Z" transform="translate(95.78 0.01)"/><rect class="cls-1" x="0.5" y="222.36" width="1490" height="176.96"/></svg>